<svg viewBox="0 0 600 800" xmlns="http://www.w3.org/2000/svg" role="img" aria-label="Cartel QR Albatros para el tee">
<rect width="600" height="800" rx="28" fill="#0a0a0a" stroke="#C6A15B" stroke-width="2"/>
<text x="300" y="92" text-anchor="middle" font-family="'Bebas Neue',sans-serif" font-size="58" letter-spacing="3" fill="#F5F5F5">ALBA<tspan fill="#C6A15B">TROS</tspan></text>
<text x="300" y="128" text-anchor="middle" font-family="Montserrat,sans-serif" font-size="16" letter-spacing="6" fill="#8d8d83">LEADERBOARD EN VIVO</text>
<rect x="150" y="170" width="300" height="300" rx="18" fill="#ffffff"/>
<g transform="translate(150,170) scale(0.8108108108108109)"><g transform="scale(10)"><path fill="#fff" d="M0 0h37v37h-37z"/><path class="qrline" stroke="#0a0a0a" d="M2 2.5h7m2 0h1m1 0h1m1 0h1m2 0h1m2 0h2m1 0h1m1 0h1m1 0h7m-33 1h1m5 0h1m2 0h1m1 0h1m2 0h4m2 0h3m1 0h1m1 0h1m5 0h1m-33 1h1m1 0h3m1 0h1m1 0h2m1 0h3m1 0h1m3 0h1m1 0h1m1 0h2m1 0h1m1 0h3m1 0h1m-33 1h1m1 0h3m1 0h1m1 0h2m4 0h2m1 0h2m1 0h2m1 0h1m2 0h1m1 0h3m1 0h1m-33 1h1m1 0h3m1 0h1m3 0h3m1 0h4m4 0h3m1 0h1m1 0h3m1 0h1m-33 1h1m5 0h1m2 0h2m1 0h4m1 0h2m1 0h2m1 0h1m2 0h1m5 0h1m-33 1h7m1 0h1m1 0h1m1 0h1m1 0h1m1 0h1m1 0h1m1 0h1m1 0h1m1 0h1m1 0h7m-24 1h2m1 0h3m1 0h1m1 0h1m5 0h1m-22 1h2m1 0h2m1 0h1m1 0h2m3 0h1m7 0h1m4 0h2m-30 1h1m1 0h1m1 0h1m2 0h2m1 0h1m1 0h1m1 0h2m1 0h1m2 0h5m1 0h4m-28 1h4m1 0h4m2 0h3m1 0h3m1 0h3m1 0h2m1 0h1m1 0h2m-31 1h2m7 0h1m2 0h1m1 0h4m1 0h3m1 0h1m1 0h2m1 0h2m-32 1h2m1 0h1m2 0h1m1 0h3m2 0h1m1 0h1m5 0h1m2 0h1m1 0h4m1 0h2m-32 1h1m1 0h3m3 0h1m3 0h1m2 0h1m1 0h1m2 0h1m1 0h1m3 0h2m1 0h2m-29 1h2m1 0h1m3 0h1m1 0h3m3 0h1m5 0h2m1 0h1m2 0h1m-29 1h1m1 0h1m2 0h3m1 0h1m3 0h4m1 0h1m2 0h3m1 0h1m2 0h2m-31 1h3m1 0h2m2 0h2m1 0h1m2 0h1m3 0h1m3 0h1m1 0h6m-31 1h1m1 0h2m3 0h2m1 0h1m1 0h1m1 0h1m1 0h3m1 0h1m1 0h1m1 0h1m1 0h4m1 0h2m-31 1h1m2 0h3m2 0h1m3 0h2m2 0h1m3 0h2m1 0h3m1 0h2m1 0h1m-33 1h2m1 0h1m1 0h1m2 0h3m1 0h1m3 0h5m1 0h3m1 0h1m2 0h4m-31 1h1m1 0h4m4 0h1m1 0h3m5 0h1m1 0h2m1 0h1m1 0h1m1 0h1m-32 1h4m5 0h4m5 0h2m2 0h1m2 0h5m1 0h1m-32 1h1m1 0h1m2 0h4m1 0h3m1 0h1m1 0h2m3 0h1m2 0h1m1 0h7m-33 1h1m1 0h3m2 0h1m2 0h7m1 0h1m1 0h1m7 0h1m1 0h1m1 0h1m-33 1h3m2 0h5m1 0h1m1 0h1m2 0h2m6 0h6m-22 1h1m1 0h2m3 0h2m3 0h1m1 0h1m1 0h1m3 0h4m-32 1h7m1 0h1m1 0h2m1 0h3m3 0h1m1 0h4m1 0h1m1 0h3m-31 1h1m5 0h1m4 0h1m3 0h1m1 0h2m1 0h1m2 0h2m3 0h4m-32 1h1m1 0h3m1 0h1m1 0h2m2 0h1m1 0h3m1 0h4m1 0h6m2 0h1m-32 1h1m1 0h3m1 0h1m1 0h2m2 0h1m1 0h6m1 0h1m2 0h2m1 0h1m1 0h3m-32 1h1m1 0h3m1 0h1m3 0h3m1 0h1m2 0h1m6 0h1m3 0h5m-33 1h1m5 0h1m2 0h1m1 0h1m1 0h2m2 0h4m1 0h2m2 0h1m3 0h3m-33 1h7m2 0h6m4 0h2m2 0h3m2 0h1m1 0h1"/></g></g>
<text x="300" y="545" text-anchor="middle" font-family="'Bebas Neue',sans-serif" font-size="40" letter-spacing="2" fill="#C6A15B">ESCANEA</text>
<text x="300" y="585" text-anchor="middle" font-family="Montserrat,sans-serif" font-size="17" fill="#c8c8c0">para ver los resultados en vivo</text>
<rect x="170" y="640" width="260" height="2" fill="#2a2a26"/>
<text x="300" y="690" text-anchor="middle" font-family="Montserrat,sans-serif" font-size="18" font-weight="700" letter-spacing="1" fill="#F5F5F5">albatros.vercel.app</text>
<text x="300" y="745" text-anchor="middle" font-family="'Bebas Neue',sans-serif" font-size="20" letter-spacing="4" fill="#C6A15B">NOT GIVEN. TAKEN.</text>
</svg>